<?xml version="1.0" encoding="UTF-8"?>
<svg xmlns="http://www.w3.org/2000/svg" xmlns:xlink="http://www.w3.org/1999/xlink"   viewBox="0 0 143 143" version="1.1">
<defs>
<clipPath id="clip1">
  <path d="M -148 668 L 464 668 L 464 -124 L -148 -124 L -148 668 Z M -148 668 "/>
</clipPath>
</defs>
<g id="surface0">
<g clip-path="url(#clip1)" clip-rule="nonzero">
<path style=" stroke:none;fill-rule:nonzero;fill:rgb(95.001144%,90.000763%,85.000381%);fill-opacity:1;" d="M 0.910156 142.734375 L 0.910156 1 L 142.644531 1 L 142.644531 142.734375 L 0.910156 142.734375 Z M 0.910156 142.734375 "/>
<path style="fill:none;stroke-width:0.3985;stroke-linecap:butt;stroke-linejoin:miter;stroke:rgb(0%,0%,0%);stroke-opacity:1;stroke-miterlimit:10;" d="M -70.867844 -56.6955 L 70.866531 -56.6955 M -70.867844 -28.347844 L 70.866531 -28.347844 M -70.867844 -0.0001875 L 70.866531 -0.0001875 M -70.867844 28.347469 L 70.866531 28.347469 M -70.867844 56.695125 L 70.866531 56.695125 M -56.692062 -70.867375 L -56.692062 70.867 M -28.348312 -70.867375 L -28.348312 70.867 M -0.00065625 -70.867375 L -0.00065625 70.867 M 28.347 -70.867375 L 28.347 70.867 M 56.694656 -70.867375 L 56.694656 70.867 " transform="matrix(1,0,0,-1,71.778,71.867)"/>
<path style="fill-rule:nonzero;fill:rgb(100%,100%,100%);fill-opacity:1;stroke-width:0.3985;stroke-linecap:butt;stroke-linejoin:miter;stroke:rgb(0%,0%,0%);stroke-opacity:1;stroke-miterlimit:10;" d="M -47.301437 -28.347844 C -47.301437 -23.133 -51.481125 -18.953313 -56.692062 -18.953313 C -61.906906 -18.953313 -66.086594 -23.133 -66.086594 -28.347844 C -66.086594 -33.558781 -61.906906 -37.738469 -56.692062 -37.738469 C -51.481125 -37.738469 -47.301437 -33.558781 -47.301437 -28.347844 Z M -47.301437 -28.347844 " transform="matrix(1,0,0,-1,71.778,71.867)"/>
<path style="fill-rule:nonzero;fill:rgb(100%,100%,100%);fill-opacity:1;stroke-width:0.3985;stroke-linecap:butt;stroke-linejoin:miter;stroke:rgb(0%,0%,0%);stroke-opacity:1;stroke-miterlimit:10;" d="M 9.393875 -0.0001875 C 9.393875 5.214656 5.214188 9.394344 -0.00065625 9.394344 C -5.211594 9.394344 -9.391281 5.214656 -9.391281 -0.0001875 C -9.391281 -5.211125 -5.211594 -9.390813 -0.00065625 -9.390813 C 5.214188 -9.390813 9.393875 -5.211125 9.393875 -0.0001875 Z M 9.393875 -0.0001875 " transform="matrix(1,0,0,-1,71.778,71.867)"/>
<path style="fill-rule:nonzero;fill:rgb(100%,100%,100%);fill-opacity:1;stroke-width:0.3985;stroke-linecap:butt;stroke-linejoin:miter;stroke:rgb(0%,0%,0%);stroke-opacity:1;stroke-miterlimit:10;" d="M 37.737625 56.695125 C 37.737625 61.906062 33.557938 66.08575 28.347 66.08575 C 23.132156 66.08575 18.952469 61.906062 18.952469 56.695125 C 18.952469 51.480281 23.132156 47.300594 28.347 47.300594 C 33.557938 47.300594 37.737625 51.480281 37.737625 56.695125 Z M 37.737625 56.695125 " transform="matrix(1,0,0,-1,71.778,71.867)"/>
<path style="fill-rule:nonzero;fill:rgb(0%,0%,0%);fill-opacity:1;stroke-width:0.3985;stroke-linecap:butt;stroke-linejoin:miter;stroke:rgb(0%,0%,0%);stroke-opacity:1;stroke-miterlimit:10;" d="M -18.953781 28.347469 C -18.953781 33.558406 -23.133469 37.738094 -28.348312 37.738094 C -33.55925 37.738094 -37.738937 33.558406 -37.738937 28.347469 C -37.738937 23.132625 -33.55925 18.952937 -28.348312 18.952937 C -23.133469 18.952937 -18.953781 23.132625 -18.953781 28.347469 Z M -18.953781 28.347469 " transform="matrix(1,0,0,-1,71.778,71.867)"/>
<path style="fill-rule:nonzero;fill:rgb(0%,0%,0%);fill-opacity:1;stroke-width:0.3985;stroke-linecap:butt;stroke-linejoin:miter;stroke:rgb(0%,0%,0%);stroke-opacity:1;stroke-miterlimit:10;" d="M 37.737625 28.347469 C 37.737625 33.558406 33.557938 37.738094 28.347 37.738094 C 23.132156 37.738094 18.952469 33.558406 18.952469 28.347469 C 18.952469 23.132625 23.132156 18.952937 28.347 18.952937 C 33.557938 18.952937 37.737625 23.132625 37.737625 28.347469 Z M 37.737625 28.347469 " transform="matrix(1,0,0,-1,71.778,71.867)"/>
<path style="fill-rule:nonzero;fill:rgb(0%,0%,0%);fill-opacity:1;stroke-width:0.3985;stroke-linecap:butt;stroke-linejoin:miter;stroke:rgb(0%,0%,0%);stroke-opacity:1;stroke-miterlimit:10;" d="M 37.737625 -56.6955 C 37.737625 -51.480656 33.557938 -47.300969 28.347 -47.300969 C 23.132156 -47.300969 18.952469 -51.480656 18.952469 -56.6955 C 18.952469 -61.906438 23.132156 -66.086125 28.347 -66.086125 C 33.557938 -66.086125 37.737625 -61.906438 37.737625 -56.6955 Z M 37.737625 -56.6955 " transform="matrix(1,0,0,-1,71.778,71.867)"/>
</g>
</g>
</svg>
