<?xml version="1.0" encoding="UTF-8"?>
<svg xmlns="http://www.w3.org/2000/svg" xmlns:xlink="http://www.w3.org/1999/xlink"   viewBox="0 0 143 143" version="1.1">
<g id="surface1">
<path style=" stroke:none;fill-rule:nonzero;fill:rgb(94.999695%,89.99939%,84.999084%);fill-opacity:1;" d="M 0.910156 142.734375 L 0.910156 1 L 142.644531 1 L 142.644531 142.734375 Z M 0.910156 142.734375 "/>
<path style="fill:none;stroke-width:1;stroke-linecap:butt;stroke-linejoin:miter;stroke:rgb(0%,0%,0%);stroke-opacity:1;stroke-miterlimit:10;" d="M -71.278 -56.633 L 70.722 -56.633 M -71.278 -28.633 L 70.722 -28.633 M -71.278 0.367 L 70.722 0.367 M -71.278 28.367 L 70.722 28.367 M -71.278 56.367 L 70.722 56.367 M -56.278 -70.633 L -56.278 71.367 M -28.278 -70.633 L -28.278 71.367 M -0.278 -70.633 L -0.278 71.367 M 28.722 -70.633 L 28.722 71.367 M 56.722 -70.633 L 56.722 71.367 " transform="matrix(1,0,0,-1,71.778,71.867)"/>
<path style=" stroke:none;fill-rule:nonzero;fill:rgb(100%,100%,100%);fill-opacity:1;" d="M 26.824219 100.214844 C 26.824219 93.730469 21.570312 88.472656 15.085938 88.472656 C 8.601562 88.472656 3.34375 93.730469 3.34375 100.214844 C 3.34375 106.699219 8.601562 111.953125 15.085938 111.953125 C 21.570312 111.953125 26.824219 106.699219 26.824219 100.214844 Z M 26.824219 100.214844 "/>
<path style="fill:none;stroke-width:1;stroke-linecap:butt;stroke-linejoin:miter;stroke:rgb(0%,0%,0%);stroke-opacity:1;stroke-miterlimit:10;" d="M -45.278 -28.633 C -44.953781 -21.863469 -50.207687 -16.605656 -56.692062 -16.605656 C -63.176437 -16.605656 -68.43425 -21.863469 -68.43425 -28.347844 C -68.43425 -34.832219 -63.176437 -40.086125 -56.692062 -40.086125 C -50.207687 -40.086125 -44.953781 -34.832219 -44.953781 -28.347844 Z M -45.278 -28.633 " transform="matrix(1,0,0,-1,71.778,71.867)"/>
<path style=" stroke:none;fill-rule:nonzero;fill:rgb(100%,100%,100%);fill-opacity:1;" d="M 83.519531 71.867188 C 83.519531 65.382812 78.261719 60.125 71.777344 60.125 C 65.292969 60.125 60.039062 65.382812 60.039062 71.867188 C 60.039062 78.351562 65.292969 83.609375 71.777344 83.609375 C 78.261719 83.609375 83.519531 78.351562 83.519531 71.867188 Z M 83.519531 71.867188 "/>
<path style="fill:none;stroke-width:1;stroke-linecap:butt;stroke-linejoin:miter;stroke:rgb(0%,0%,0%);stroke-opacity:1;stroke-miterlimit:10;" d="M 11.722 0.367 C 11.741531 6.484187 6.483719 11.742 -0.00065625 11.742 C -6.485031 11.742 -11.738937 6.484187 -11.738937 -0.0001875 C -11.738937 -6.484563 -6.485031 -11.742375 -0.00065625 -11.742375 C 6.483719 -11.742375 11.741531 -6.484563 11.741531 -0.0001875 Z M 11.722 0.367 " transform="matrix(1,0,0,-1,71.778,71.867)"/>
<path style=" stroke:none;fill-rule:nonzero;fill:rgb(100%,100%,100%);fill-opacity:1;" d="M 111.867188 15.171875 C 111.867188 8.6875 106.609375 3.433594 100.125 3.433594 C 93.640625 3.433594 88.382812 8.6875 88.382812 15.171875 C 88.382812 21.65625 93.640625 26.914062 100.125 26.914062 C 106.609375 26.914062 111.867188 21.65625 111.867188 15.171875 Z M 111.867188 15.171875 "/>
<path style="fill:none;stroke-width:1;stroke-linecap:butt;stroke-linejoin:miter;stroke:rgb(0%,0%,0%);stroke-opacity:1;stroke-miterlimit:10;" d="M 39.722 56.367 C 40.089188 63.1795 34.831375 68.433406 28.347 68.433406 C 21.862625 68.433406 16.604813 63.1795 16.604813 56.695125 C 16.604813 50.21075 21.862625 44.952937 28.347 44.952937 C 34.831375 44.952937 40.089188 50.21075 40.089188 56.695125 Z M 39.722 56.367 " transform="matrix(1,0,0,-1,71.778,71.867)"/>
<path style=" stroke:none;fill-rule:nonzero;fill:rgb(0%,0%,0%);fill-opacity:1;" d="M 55.171875 43.519531 C 55.171875 37.035156 49.914062 31.78125 43.429688 31.78125 C 36.945312 31.78125 31.691406 37.035156 31.691406 43.519531 C 31.691406 50.003906 36.945312 55.261719 43.429688 55.261719 C 49.914062 55.261719 55.171875 50.003906 55.171875 43.519531 Z M 55.171875 43.519531 "/>
<path style="fill:none;stroke-width:1;stroke-linecap:butt;stroke-linejoin:miter;stroke:rgb(0%,0%,0%);stroke-opacity:1;stroke-miterlimit:10;" d="M -16.278 28.367 C -16.606125 34.831844 -21.863937 40.08575 -28.348312 40.08575 C -34.832687 40.08575 -40.086594 34.831844 -40.086594 28.347469 C -40.086594 21.863094 -34.832687 16.605281 -28.348312 16.605281 C -21.863937 16.605281 -16.606125 21.863094 -16.606125 28.347469 Z M -16.278 28.367 " transform="matrix(1,0,0,-1,71.778,71.867)"/>
<path style=" stroke:none;fill-rule:nonzero;fill:rgb(0%,0%,0%);fill-opacity:1;" d="M 111.867188 43.519531 C 111.867188 37.035156 106.609375 31.78125 100.125 31.78125 C 93.640625 31.78125 88.382812 37.035156 88.382812 43.519531 C 88.382812 50.003906 93.640625 55.261719 100.125 55.261719 C 106.609375 55.261719 111.867188 50.003906 111.867188 43.519531 Z M 111.867188 43.519531 "/>
<path style="fill:none;stroke-width:1;stroke-linecap:butt;stroke-linejoin:miter;stroke:rgb(0%,0%,0%);stroke-opacity:1;stroke-miterlimit:10;" d="M 39.722 28.367 C 40.089188 34.831844 34.831375 40.08575 28.347 40.08575 C 21.862625 40.08575 16.604813 34.831844 16.604813 28.347469 C 16.604813 21.863094 21.862625 16.605281 28.347 16.605281 C 34.831375 16.605281 40.089188 21.863094 40.089188 28.347469 Z M 39.722 28.367 " transform="matrix(1,0,0,-1,71.778,71.867)"/>
<path style=" stroke:none;fill-rule:nonzero;fill:rgb(0%,0%,0%);fill-opacity:1;" d="M 111.867188 128.5625 C 111.867188 122.078125 106.609375 116.820312 100.125 116.820312 C 93.640625 116.820312 88.382812 122.078125 88.382812 128.5625 C 88.382812 135.046875 93.640625 140.300781 100.125 140.300781 C 106.609375 140.300781 111.867188 135.046875 111.867188 128.5625 Z M 111.867188 128.5625 "/>
<path style="fill:none;stroke-width:1;stroke-linecap:butt;stroke-linejoin:miter;stroke:rgb(0%,0%,0%);stroke-opacity:1;stroke-miterlimit:10;" d="M 39.722 -56.633 C 40.089188 -50.211125 34.831375 -44.953313 28.347 -44.953313 C 21.862625 -44.953313 16.604813 -50.211125 16.604813 -56.6955 C 16.604813 -63.179875 21.862625 -68.433781 28.347 -68.433781 C 34.831375 -68.433781 40.089188 -63.179875 40.089188 -56.6955 Z M 39.722 -56.633 " transform="matrix(1,0,0,-1,71.778,71.867)"/>
</g>
</svg>
