<?xml version="1.0" encoding="UTF-8"?>
<svg xmlns="http://www.w3.org/2000/svg" xmlns:xlink="http://www.w3.org/1999/xlink"   viewBox="0 0 143 143" version="1.1">
<defs>
<clipPath id="clip1">
  <path d="M -148 668 L 464 668 L 464 -124 L -148 -124 L -148 668 Z M -148 668 "/>
</clipPath>
</defs>
<g id="surface0">
<g clip-path="url(#clip1)" clip-rule="nonzero">
<path style=" stroke:none;fill-rule:nonzero;fill:rgb(95.001144%,90.000763%,85.000381%);fill-opacity:1;" d="M 0.910156 142.734375 L 0.910156 1 L 142.644531 1 L 142.644531 142.734375 L 0.910156 142.734375 Z M 0.910156 142.734375 "/>
<path style="fill:none;stroke-width:0.3985;stroke-linecap:butt;stroke-linejoin:miter;stroke:rgb(0%,0%,0%);stroke-opacity:1;stroke-miterlimit:10;" d="M -70.867844 -56.6955 L 70.866531 -56.6955 M -70.867844 -28.347844 L 70.866531 -28.347844 M -70.867844 -0.0001875 L 70.866531 -0.0001875 M -70.867844 28.347469 L 70.866531 28.347469 M -70.867844 56.695125 L 70.866531 56.695125 M -56.692062 -70.867375 L -56.692062 70.867 M -28.348312 -70.867375 L -28.348312 70.867 M -0.00065625 -70.867375 L -0.00065625 70.867 M 28.347 -70.867375 L 28.347 70.867 M 56.694656 -70.867375 L 56.694656 70.867 " transform="matrix(1,0,0,-1,71.778,71.867)"/>
<path style="fill-rule:nonzero;fill:rgb(100%,100%,100%);fill-opacity:1;stroke-width:0.3985;stroke-linecap:butt;stroke-linejoin:miter;stroke:rgb(0%,0%,0%);stroke-opacity:1;stroke-miterlimit:10;" d="M -44.953781 -28.347844 C -44.953781 -21.832219 -50.176437 -16.605656 -56.692062 -16.605656 C -63.211594 -16.605656 -68.43425 -21.832219 -68.43425 -28.347844 C -68.43425 -34.863469 -63.211594 -40.086125 -56.692062 -40.086125 C -50.176437 -40.086125 -44.953781 -34.863469 -44.953781 -28.347844 Z M -44.953781 -28.347844 " transform="matrix(1,0,0,-1,71.778,71.867)"/>
<path style="fill-rule:nonzero;fill:rgb(100%,100%,100%);fill-opacity:1;stroke-width:0.3985;stroke-linecap:butt;stroke-linejoin:miter;stroke:rgb(0%,0%,0%);stroke-opacity:1;stroke-miterlimit:10;" d="M 11.741531 -0.0001875 C 11.741531 6.515437 6.514969 11.742 -0.00065625 11.742 C -6.516281 11.742 -11.738937 6.515437 -11.738937 -0.0001875 C -11.738937 -6.515813 -6.516281 -11.742375 -0.00065625 -11.742375 C 6.514969 -11.742375 11.741531 -6.515813 11.741531 -0.0001875 Z M 11.741531 -0.0001875 " transform="matrix(1,0,0,-1,71.778,71.867)"/>
<path style="fill-rule:nonzero;fill:rgb(100%,100%,100%);fill-opacity:1;stroke-width:0.3985;stroke-linecap:butt;stroke-linejoin:miter;stroke:rgb(0%,0%,0%);stroke-opacity:1;stroke-miterlimit:10;" d="M 40.089188 56.695125 C 40.089188 63.21075 34.862625 68.433406 28.347 68.433406 C 21.831375 68.433406 16.604813 63.21075 16.604813 56.695125 C 16.604813 50.1795 21.831375 44.952937 28.347 44.952937 C 34.862625 44.952937 40.089188 50.1795 40.089188 56.695125 Z M 40.089188 56.695125 " transform="matrix(1,0,0,-1,71.778,71.867)"/>
<path style="fill-rule:nonzero;fill:rgb(0%,0%,0%);fill-opacity:1;stroke-width:0.3985;stroke-linecap:butt;stroke-linejoin:miter;stroke:rgb(0%,0%,0%);stroke-opacity:1;stroke-miterlimit:10;" d="M -16.606125 28.347469 C -16.606125 34.863094 -21.832687 40.08575 -28.348312 40.08575 C -34.863937 40.08575 -40.086594 34.863094 -40.086594 28.347469 C -40.086594 21.831844 -34.863937 16.605281 -28.348312 16.605281 C -21.832687 16.605281 -16.606125 21.831844 -16.606125 28.347469 Z M -16.606125 28.347469 " transform="matrix(1,0,0,-1,71.778,71.867)"/>
<path style="fill-rule:nonzero;fill:rgb(0%,0%,0%);fill-opacity:1;stroke-width:0.3985;stroke-linecap:butt;stroke-linejoin:miter;stroke:rgb(0%,0%,0%);stroke-opacity:1;stroke-miterlimit:10;" d="M 40.089188 28.347469 C 40.089188 34.863094 34.862625 40.08575 28.347 40.08575 C 21.831375 40.08575 16.604813 34.863094 16.604813 28.347469 C 16.604813 21.831844 21.831375 16.605281 28.347 16.605281 C 34.862625 16.605281 40.089188 21.831844 40.089188 28.347469 Z M 40.089188 28.347469 " transform="matrix(1,0,0,-1,71.778,71.867)"/>
<path style="fill-rule:nonzero;fill:rgb(0%,0%,0%);fill-opacity:1;stroke-width:0.3985;stroke-linecap:butt;stroke-linejoin:miter;stroke:rgb(0%,0%,0%);stroke-opacity:1;stroke-miterlimit:10;" d="M 40.089188 -56.6955 C 40.089188 -50.175969 34.862625 -44.953313 28.347 -44.953313 C 21.831375 -44.953313 16.604813 -50.175969 16.604813 -56.6955 C 16.604813 -63.211125 21.831375 -68.433781 28.347 -68.433781 C 34.862625 -68.433781 40.089188 -63.211125 40.089188 -56.6955 Z M 40.089188 -56.6955 " transform="matrix(1,0,0,-1,71.778,71.867)"/>
</g>
</g>
</svg>
