<?xml version="1.0" encoding="UTF-8"?>
<svg xmlns="http://www.w3.org/2000/svg" xmlns:xlink="http://www.w3.org/1999/xlink"   viewBox="0 0 295 112" version="1.1">
<defs>
<clipPath id="clip1">
  <path d="M -148 668 L 464 668 L 464 -124 L -148 -124 L -148 668 Z M -148 668 "/>
</clipPath>
</defs>
<g id="surface0">
<g clip-path="url(#clip1)" clip-rule="nonzero">
<path style="fill-rule:nonzero;fill:rgb(100%,90.000763%,90.000763%);fill-opacity:1;stroke-width:0.79701;stroke-linecap:butt;stroke-linejoin:miter;stroke:rgb(60%,0%,0%);stroke-opacity:1;stroke-miterlimit:10;" d="M 4.695375 -5.09275 C 4.695375 -2.487281 2.605531 -0.397438 0.0000625 -0.397438 C -2.605406 -0.397438 -4.69525 -2.487281 -4.69525 -5.09275 C -4.69525 -7.702125 -2.605406 -9.791969 0.0000625 -9.791969 C 2.605531 -9.791969 4.695375 -7.702125 4.695375 -5.09275 Z M 4.695375 -5.09275 " transform="matrix(1,0,0,-1,147.539,1.001)"/>
<path style="fill:none;stroke-width:1.19553;stroke-linecap:butt;stroke-linejoin:miter;stroke:rgb(0%,0%,0%);stroke-opacity:1;stroke-dasharray:2.98883,2.98883;stroke-miterlimit:10;" d="M 4.906313 -6.495094 L 99.214906 -33.440406 " transform="matrix(1,0,0,-1,147.539,1.001)"/>
<path style="fill:none;stroke-width:0.79701;stroke-linecap:butt;stroke-linejoin:miter;stroke:rgb(0%,0%,0%);stroke-opacity:1;stroke-dasharray:2.98883,2.98883;stroke-miterlimit:10;" d="M 103.910219 -38.534156 C 103.910219 -35.928688 101.820375 -33.838844 99.214906 -33.838844 C 96.609438 -33.838844 94.519594 -35.928688 94.519594 -38.534156 C 94.519594 -41.143531 96.609438 -43.233375 99.214906 -43.233375 C 101.820375 -43.233375 103.910219 -41.143531 103.910219 -38.534156 Z M 103.910219 -38.534156 " transform="matrix(1,0,0,-1,147.539,1.001)"/>
<path style="fill:none;stroke-width:0.3985;stroke-linecap:butt;stroke-linejoin:miter;stroke:rgb(0%,0%,0%);stroke-opacity:1;stroke-dasharray:2.98883,2.98883;stroke-miterlimit:10;" d="M 104.308656 -38.534156 L 120.472719 -38.534156 L 120.472719 -66.881813 " transform="matrix(1,0,0,-1,147.539,1.001)"/>
<path style="fill:none;stroke-width:0.79701;stroke-linecap:butt;stroke-linejoin:miter;stroke:rgb(0%,0%,0%);stroke-opacity:1;stroke-dasharray:2.98883,2.98883;stroke-miterlimit:10;" d="M 125.168031 -71.975563 C 125.168031 -69.370094 123.082094 -67.28025 120.472719 -67.28025 C 117.86725 -67.28025 115.777406 -69.370094 115.777406 -71.975563 C 115.777406 -74.584938 117.86725 -76.674781 120.472719 -76.674781 C 123.082094 -76.674781 125.168031 -74.584938 125.168031 -71.975563 Z M 125.168031 -71.975563 " transform="matrix(1,0,0,-1,147.539,1.001)"/>
<path style="fill:none;stroke-width:0.3985;stroke-linecap:butt;stroke-linejoin:miter;stroke:rgb(0%,0%,0%);stroke-opacity:1;stroke-dasharray:2.98883,2.98883;stroke-miterlimit:10;" d="M 94.121156 -38.534156 L 77.953188 -38.534156 L 77.953188 -66.881813 " transform="matrix(1,0,0,-1,147.539,1.001)"/>
<path style="fill:none;stroke-width:0.79701;stroke-linecap:butt;stroke-linejoin:miter;stroke:rgb(0%,0%,0%);stroke-opacity:1;stroke-dasharray:2.98883,2.98883;stroke-miterlimit:10;" d="M 82.6485 -71.975563 C 82.6485 -69.370094 80.558656 -67.28025 77.953188 -67.28025 C 75.347719 -67.28025 73.257875 -69.370094 73.257875 -71.975563 C 73.257875 -74.584938 75.347719 -76.674781 77.953188 -76.674781 C 80.558656 -76.674781 82.6485 -74.584938 82.6485 -71.975563 Z M 82.6485 -71.975563 " transform="matrix(1,0,0,-1,147.539,1.001)"/>
<path style="fill:none;stroke-width:0.3985;stroke-linecap:butt;stroke-linejoin:miter;stroke:rgb(0%,0%,0%);stroke-opacity:1;stroke-dasharray:2.98883,2.98883;stroke-miterlimit:10;" d="M 125.566469 -71.975563 L 141.734438 -71.975563 L 141.734438 -100.323219 " transform="matrix(1,0,0,-1,147.539,1.001)"/>
<path style="fill:none;stroke-width:0.79701;stroke-linecap:butt;stroke-linejoin:miter;stroke:rgb(0%,0%,0%);stroke-opacity:1;stroke-dasharray:2.98883,2.98883;stroke-miterlimit:10;" d="M 146.42975 -105.416969 C 146.42975 -102.8115 144.339906 -100.721656 141.734438 -100.721656 C 139.128969 -100.721656 137.039125 -102.8115 137.039125 -105.416969 C 137.039125 -108.026344 139.128969 -110.116188 141.734438 -110.116188 C 144.339906 -110.116188 146.42975 -108.026344 146.42975 -105.416969 Z M 146.42975 -105.416969 " transform="matrix(1,0,0,-1,147.539,1.001)"/>
<path style="fill:none;stroke-width:0.3985;stroke-linecap:butt;stroke-linejoin:miter;stroke:rgb(0%,0%,0%);stroke-opacity:1;stroke-dasharray:2.98883,2.98883;stroke-miterlimit:10;" d="M 115.378969 -71.975563 L 99.214906 -71.975563 L 99.214906 -100.323219 " transform="matrix(1,0,0,-1,147.539,1.001)"/>
<path style="fill:none;stroke-width:0.79701;stroke-linecap:butt;stroke-linejoin:miter;stroke:rgb(0%,0%,0%);stroke-opacity:1;stroke-dasharray:2.98883,2.98883;stroke-miterlimit:10;" d="M 103.910219 -105.416969 C 103.910219 -102.8115 101.820375 -100.721656 99.214906 -100.721656 C 96.609438 -100.721656 94.519594 -102.8115 94.519594 -105.416969 C 94.519594 -108.026344 96.609438 -110.116188 99.214906 -110.116188 C 101.820375 -110.116188 103.910219 -108.026344 103.910219 -105.416969 Z M 103.910219 -105.416969 " transform="matrix(1,0,0,-1,147.539,1.001)"/>
<path style="fill:none;stroke-width:0.3985;stroke-linecap:butt;stroke-linejoin:miter;stroke:rgb(0%,0%,0%);stroke-opacity:1;stroke-dasharray:2.98883,2.98883;stroke-miterlimit:10;" d="M 72.859438 -71.975563 L 63.781313 -71.975563 L 63.781313 -100.323219 " transform="matrix(1,0,0,-1,147.539,1.001)"/>
<path style="fill:none;stroke-width:0.79701;stroke-linecap:butt;stroke-linejoin:miter;stroke:rgb(0%,0%,0%);stroke-opacity:1;stroke-dasharray:2.98883,2.98883;stroke-miterlimit:10;" d="M 68.476625 -105.416969 C 68.476625 -102.8115 66.386781 -100.721656 63.781313 -100.721656 C 61.175844 -100.721656 59.086 -102.8115 59.086 -105.416969 C 59.086 -108.026344 61.175844 -110.116188 63.781313 -110.116188 C 66.386781 -110.116188 68.476625 -108.026344 68.476625 -105.416969 Z M 68.476625 -105.416969 " transform="matrix(1,0,0,-1,147.539,1.001)"/>
<path style="fill:none;stroke-width:1.19553;stroke-linecap:butt;stroke-linejoin:miter;stroke:rgb(60%,0%,0%);stroke-opacity:1;stroke-miterlimit:10;" d="M 1.234438 -10.038063 L 7.086 -33.440406 " transform="matrix(1,0,0,-1,147.539,1.001)"/>
<path style="fill-rule:nonzero;fill:rgb(100%,90.000763%,90.000763%);fill-opacity:1;stroke-width:0.79701;stroke-linecap:butt;stroke-linejoin:miter;stroke:rgb(60%,0%,0%);stroke-opacity:1;stroke-miterlimit:10;" d="M 11.781313 -38.534156 C 11.781313 -35.928688 9.691469 -33.838844 7.086 -33.838844 C 4.480531 -33.838844 2.390688 -35.928688 2.390688 -38.534156 C 2.390688 -41.143531 4.480531 -43.233375 7.086 -43.233375 C 9.691469 -43.233375 11.781313 -41.143531 11.781313 -38.534156 Z M 11.781313 -38.534156 " transform="matrix(1,0,0,-1,147.539,1.001)"/>
<path style="fill:none;stroke-width:0.79701;stroke-linecap:butt;stroke-linejoin:miter;stroke:rgb(60%,0%,0%);stroke-opacity:1;stroke-miterlimit:10;" d="M 12.17975 -38.534156 L 28.347719 -38.534156 L 28.347719 -66.881813 " transform="matrix(1,0,0,-1,147.539,1.001)"/>
<path style="fill-rule:nonzero;fill:rgb(100%,90.000763%,90.000763%);fill-opacity:1;stroke-width:0.79701;stroke-linecap:butt;stroke-linejoin:miter;stroke:rgb(60%,0%,0%);stroke-opacity:1;stroke-miterlimit:10;" d="M 33.043031 -71.975563 C 33.043031 -69.370094 30.953188 -67.28025 28.347719 -67.28025 C 25.74225 -67.28025 23.652406 -69.370094 23.652406 -71.975563 C 23.652406 -74.584938 25.74225 -76.674781 28.347719 -76.674781 C 30.953188 -76.674781 33.043031 -74.584938 33.043031 -71.975563 Z M 33.043031 -71.975563 " transform="matrix(1,0,0,-1,147.539,1.001)"/>
<path style="fill:none;stroke-width:0.3985;stroke-linecap:butt;stroke-linejoin:miter;stroke:rgb(0%,0%,0%);stroke-opacity:1;stroke-miterlimit:10;" d="M 1.99225 -38.534156 L -14.171812 -38.534156 L -14.171812 -66.881813 " transform="matrix(1,0,0,-1,147.539,1.001)"/>
<path style="fill:none;stroke-width:0.79701;stroke-linecap:butt;stroke-linejoin:miter;stroke:rgb(0%,0%,0%);stroke-opacity:1;stroke-miterlimit:10;" d="M -9.4765 -71.975563 C -9.4765 -69.370094 -11.566344 -67.28025 -14.171812 -67.28025 C -16.781187 -67.28025 -18.871031 -69.370094 -18.871031 -71.975563 C -18.871031 -74.584938 -16.781187 -76.674781 -14.171812 -76.674781 C -11.566344 -76.674781 -9.4765 -74.584938 -9.4765 -71.975563 Z M -9.4765 -71.975563 " transform="matrix(1,0,0,-1,147.539,1.001)"/>
<path style="fill:none;stroke-width:0.79701;stroke-linecap:butt;stroke-linejoin:miter;stroke:rgb(60%,0%,0%);stroke-opacity:1;stroke-miterlimit:10;" d="M 33.441469 -71.975563 L 42.519594 -71.975563 L 42.519594 -100.323219 " transform="matrix(1,0,0,-1,147.539,1.001)"/>
<path style="fill-rule:nonzero;fill:rgb(100%,90.000763%,90.000763%);fill-opacity:1;stroke-width:0.79701;stroke-linecap:butt;stroke-linejoin:miter;stroke:rgb(60%,0%,0%);stroke-opacity:1;stroke-miterlimit:10;" d="M 47.214906 -105.416969 C 47.214906 -102.8115 45.125063 -100.721656 42.519594 -100.721656 C 39.914125 -100.721656 37.824281 -102.8115 37.824281 -105.416969 C 37.824281 -108.026344 39.914125 -110.116188 42.519594 -110.116188 C 45.125063 -110.116188 47.214906 -108.026344 47.214906 -105.416969 Z M 47.214906 -105.416969 " transform="matrix(1,0,0,-1,147.539,1.001)"/>
<path style="fill:none;stroke-width:0.3985;stroke-linecap:butt;stroke-linejoin:miter;stroke:rgb(0%,0%,0%);stroke-opacity:1;stroke-miterlimit:10;" d="M -9.078062 -71.975563 L 7.086 -71.975563 L 7.086 -100.323219 " transform="matrix(1,0,0,-1,147.539,1.001)"/>
<path style="fill:none;stroke-width:0.79701;stroke-linecap:butt;stroke-linejoin:miter;stroke:rgb(0%,0%,0%);stroke-opacity:1;stroke-miterlimit:10;" d="M 11.781313 -105.416969 C 11.781313 -102.8115 9.691469 -100.721656 7.086 -100.721656 C 4.480531 -100.721656 2.390688 -102.8115 2.390688 -105.416969 C 2.390688 -108.026344 4.480531 -110.116188 7.086 -110.116188 C 9.691469 -110.116188 11.781313 -108.026344 11.781313 -105.416969 Z M 11.781313 -105.416969 " transform="matrix(1,0,0,-1,147.539,1.001)"/>
<path style="fill:none;stroke-width:0.3985;stroke-linecap:butt;stroke-linejoin:miter;stroke:rgb(0%,0%,0%);stroke-opacity:1;stroke-dasharray:2.98883,2.98883;stroke-miterlimit:10;" d="M -19.269469 -71.975563 L -35.433531 -71.975563 L -35.433531 -100.323219 " transform="matrix(1,0,0,-1,147.539,1.001)"/>
<path style="fill:none;stroke-width:0.79701;stroke-linecap:butt;stroke-linejoin:miter;stroke:rgb(0%,0%,0%);stroke-opacity:1;stroke-dasharray:2.98883,2.98883;stroke-miterlimit:10;" d="M -30.738219 -105.416969 C -30.738219 -102.8115 -32.828062 -100.721656 -35.433531 -100.721656 C -38.039 -100.721656 -40.128844 -102.8115 -40.128844 -105.416969 C -40.128844 -108.026344 -38.039 -110.116188 -35.433531 -110.116188 C -32.828062 -110.116188 -30.738219 -108.026344 -30.738219 -105.416969 Z M -30.738219 -105.416969 " transform="matrix(1,0,0,-1,147.539,1.001)"/>
<path style="fill:none;stroke-width:1.19553;stroke-linecap:butt;stroke-linejoin:miter;stroke:rgb(0%,0%,0%);stroke-opacity:1;stroke-miterlimit:10;" d="M -4.906187 -6.495094 L -99.214781 -33.440406 " transform="matrix(1,0,0,-1,147.539,1.001)"/>
<path style="fill:none;stroke-width:0.79701;stroke-linecap:butt;stroke-linejoin:miter;stroke:rgb(0%,0%,0%);stroke-opacity:1;stroke-miterlimit:10;" d="M -94.519469 -38.534156 C -94.519469 -35.928688 -96.609312 -33.838844 -99.214781 -33.838844 C -101.82025 -33.838844 -103.910094 -35.928688 -103.910094 -38.534156 C -103.910094 -41.143531 -101.82025 -43.233375 -99.214781 -43.233375 C -96.609312 -43.233375 -94.519469 -41.143531 -94.519469 -38.534156 Z M -94.519469 -38.534156 " transform="matrix(1,0,0,-1,147.539,1.001)"/>
<path style="fill:none;stroke-width:0.3985;stroke-linecap:butt;stroke-linejoin:miter;stroke:rgb(0%,0%,0%);stroke-opacity:1;stroke-miterlimit:10;" d="M -94.121031 -38.534156 L -77.953062 -38.534156 L -77.953062 -66.881813 " transform="matrix(1,0,0,-1,147.539,1.001)"/>
<path style="fill:none;stroke-width:0.79701;stroke-linecap:butt;stroke-linejoin:miter;stroke:rgb(0%,0%,0%);stroke-opacity:1;stroke-miterlimit:10;" d="M -73.25775 -71.975563 C -73.25775 -69.370094 -75.347594 -67.28025 -77.953062 -67.28025 C -80.558531 -67.28025 -82.648375 -69.370094 -82.648375 -71.975563 C -82.648375 -74.584938 -80.558531 -76.674781 -77.953062 -76.674781 C -75.347594 -76.674781 -73.25775 -74.584938 -73.25775 -71.975563 Z M -73.25775 -71.975563 " transform="matrix(1,0,0,-1,147.539,1.001)"/>
<path style="fill:none;stroke-width:0.3985;stroke-linecap:butt;stroke-linejoin:miter;stroke:rgb(0%,0%,0%);stroke-opacity:1;stroke-dasharray:2.98883,2.98883;stroke-miterlimit:10;" d="M -104.308531 -38.534156 L -120.472594 -38.534156 L -120.472594 -66.881813 " transform="matrix(1,0,0,-1,147.539,1.001)"/>
<path style="fill:none;stroke-width:0.79701;stroke-linecap:butt;stroke-linejoin:miter;stroke:rgb(0%,0%,0%);stroke-opacity:1;stroke-dasharray:2.98883,2.98883;stroke-miterlimit:10;" d="M -115.777281 -71.975563 C -115.777281 -69.370094 -117.867125 -67.28025 -120.472594 -67.28025 C -123.081969 -67.28025 -125.171812 -69.370094 -125.171812 -71.975563 C -125.171812 -74.584938 -123.081969 -76.674781 -120.472594 -76.674781 C -117.867125 -76.674781 -115.777281 -74.584938 -115.777281 -71.975563 Z M -115.777281 -71.975563 " transform="matrix(1,0,0,-1,147.539,1.001)"/>
<path style="fill:none;stroke-width:0.3985;stroke-linecap:butt;stroke-linejoin:miter;stroke:rgb(0%,0%,0%);stroke-opacity:1;stroke-miterlimit:10;" d="M -72.859312 -71.975563 L -56.69525 -71.975563 L -56.69525 -100.323219 " transform="matrix(1,0,0,-1,147.539,1.001)"/>
<path style="fill:none;stroke-width:0.79701;stroke-linecap:butt;stroke-linejoin:miter;stroke:rgb(0%,0%,0%);stroke-opacity:1;stroke-miterlimit:10;" d="M -51.996031 -105.416969 C -51.996031 -102.8115 -54.085875 -100.721656 -56.69525 -100.721656 C -59.300719 -100.721656 -61.390562 -102.8115 -61.390562 -105.416969 C -61.390562 -108.026344 -59.300719 -110.116188 -56.69525 -110.116188 C -54.085875 -110.116188 -51.996031 -108.026344 -51.996031 -105.416969 Z M -51.996031 -105.416969 " transform="matrix(1,0,0,-1,147.539,1.001)"/>
<path style="fill:none;stroke-width:0.3985;stroke-linecap:butt;stroke-linejoin:miter;stroke:rgb(0%,0%,0%);stroke-opacity:1;stroke-dasharray:2.98883,2.98883;stroke-miterlimit:10;" d="M -77.953062 -77.073219 L -77.953062 -100.323219 " transform="matrix(1,0,0,-1,147.539,1.001)"/>
<path style="fill:none;stroke-width:0.79701;stroke-linecap:butt;stroke-linejoin:miter;stroke:rgb(0%,0%,0%);stroke-opacity:1;stroke-dasharray:2.98883,2.98883;stroke-miterlimit:10;" d="M -73.25775 -105.416969 C -73.25775 -102.8115 -75.347594 -100.721656 -77.953062 -100.721656 C -80.558531 -100.721656 -82.648375 -102.8115 -82.648375 -105.416969 C -82.648375 -108.026344 -80.558531 -110.116188 -77.953062 -110.116188 C -75.347594 -110.116188 -73.25775 -108.026344 -73.25775 -105.416969 Z M -73.25775 -105.416969 " transform="matrix(1,0,0,-1,147.539,1.001)"/>
<path style="fill:none;stroke-width:0.3985;stroke-linecap:butt;stroke-linejoin:miter;stroke:rgb(0%,0%,0%);stroke-opacity:1;stroke-miterlimit:10;" d="M -83.046812 -71.975563 L -99.214781 -71.975563 L -99.214781 -100.323219 " transform="matrix(1,0,0,-1,147.539,1.001)"/>
<path style="fill:none;stroke-width:0.79701;stroke-linecap:butt;stroke-linejoin:miter;stroke:rgb(0%,0%,0%);stroke-opacity:1;stroke-miterlimit:10;" d="M -94.519469 -105.416969 C -94.519469 -102.8115 -96.609312 -100.721656 -99.214781 -100.721656 C -101.82025 -100.721656 -103.910094 -102.8115 -103.910094 -105.416969 C -103.910094 -108.026344 -101.82025 -110.116188 -99.214781 -110.116188 C -96.609312 -110.116188 -94.519469 -108.026344 -94.519469 -105.416969 Z M -94.519469 -105.416969 " transform="matrix(1,0,0,-1,147.539,1.001)"/>
<path style="fill:none;stroke-width:0.3985;stroke-linecap:butt;stroke-linejoin:miter;stroke:rgb(0%,0%,0%);stroke-opacity:1;stroke-dasharray:2.98883,2.98883;stroke-miterlimit:10;" d="M -125.57025 -71.975563 L -141.734312 -71.975563 L -141.734312 -100.323219 " transform="matrix(1,0,0,-1,147.539,1.001)"/>
<path style="fill:none;stroke-width:0.79701;stroke-linecap:butt;stroke-linejoin:miter;stroke:rgb(0%,0%,0%);stroke-opacity:1;stroke-dasharray:2.98883,2.98883;stroke-miterlimit:10;" d="M -137.039 -105.416969 C -137.039 -102.8115 -139.128844 -100.721656 -141.734312 -100.721656 C -144.339781 -100.721656 -146.429625 -102.8115 -146.429625 -105.416969 C -146.429625 -108.026344 -144.339781 -110.116188 -141.734312 -110.116188 C -139.128844 -110.116188 -137.039 -108.026344 -137.039 -105.416969 Z M -137.039 -105.416969 " transform="matrix(1,0,0,-1,147.539,1.001)"/>
</g>
</g>
</svg>
