<?xml version="1.0" encoding="UTF-8"?>
<svg xmlns="http://www.w3.org/2000/svg" xmlns:xlink="http://www.w3.org/1999/xlink" width="612pt" height="792pt" viewBox="0 0 612 792" version="1.1">
<g id="surface0">
<path style="fill:none;stroke-width:1.19553;stroke-linecap:butt;stroke-linejoin:miter;stroke:rgb(0%,0%,29.999237%);stroke-opacity:1;stroke-miterlimit:10;" d="M 0.00046875 0.000375 L 0.00046875 141.742563 L 141.742656 141.742563 L 141.742656 0.000375 L 0.00046875 0.000375 Z M 0.00046875 0.000375 " transform="matrix(1,0,0,-1,154.98,267.141)"/>
<path style="fill-rule:nonzero;fill:rgb(100%,60%,60%);fill-opacity:1;stroke-width:0.3985;stroke-linecap:butt;stroke-linejoin:miter;stroke:rgb(0%,0%,0%);stroke-opacity:1;stroke-miterlimit:10;" d="M 127.566875 127.566781 L 127.566875 141.742563 L 141.742656 141.742563 L 141.742656 127.566781 L 127.566875 127.566781 Z M 127.566875 127.566781 " transform="matrix(1,0,0,-1,154.98,267.141)"/>
<path style="fill:none;stroke-width:0.3985;stroke-linecap:butt;stroke-linejoin:miter;stroke:rgb(0%,0%,29.999237%);stroke-opacity:1;stroke-miterlimit:10;" d="M 0.00046875 14.176156 L 141.742656 14.176156 " transform="matrix(1,0,0,-1,154.98,267.141)"/>
<path style="fill:none;stroke-width:0.3985;stroke-linecap:butt;stroke-linejoin:miter;stroke:rgb(0%,0%,29.999237%);stroke-opacity:1;stroke-miterlimit:10;" d="M 14.172344 0.000375 L 14.172344 141.742563 " transform="matrix(1,0,0,-1,154.98,267.141)"/>
<path style="fill:none;stroke-width:0.3985;stroke-linecap:butt;stroke-linejoin:miter;stroke:rgb(0%,0%,29.999237%);stroke-opacity:1;stroke-miterlimit:10;" d="M 0.00046875 28.348031 L 141.742656 28.348031 " transform="matrix(1,0,0,-1,154.98,267.141)"/>
<path style="fill:none;stroke-width:0.3985;stroke-linecap:butt;stroke-linejoin:miter;stroke:rgb(0%,0%,29.999237%);stroke-opacity:1;stroke-miterlimit:10;" d="M 28.348125 0.000375 L 28.348125 141.742563 " transform="matrix(1,0,0,-1,154.98,267.141)"/>
<path style="fill:none;stroke-width:0.3985;stroke-linecap:butt;stroke-linejoin:miter;stroke:rgb(0%,0%,29.999237%);stroke-opacity:1;stroke-miterlimit:10;" d="M 0.00046875 42.523813 L 141.742656 42.523813 " transform="matrix(1,0,0,-1,154.98,267.141)"/>
<path style="fill:none;stroke-width:0.3985;stroke-linecap:butt;stroke-linejoin:miter;stroke:rgb(0%,0%,29.999237%);stroke-opacity:1;stroke-miterlimit:10;" d="M 42.523906 0.000375 L 42.523906 141.742563 " transform="matrix(1,0,0,-1,154.98,267.141)"/>
<path style="fill:none;stroke-width:0.3985;stroke-linecap:butt;stroke-linejoin:miter;stroke:rgb(0%,0%,29.999237%);stroke-opacity:1;stroke-miterlimit:10;" d="M 0.00046875 56.695688 L 141.742656 56.695688 " transform="matrix(1,0,0,-1,154.98,267.141)"/>
<path style="fill:none;stroke-width:0.3985;stroke-linecap:butt;stroke-linejoin:miter;stroke:rgb(0%,0%,29.999237%);stroke-opacity:1;stroke-miterlimit:10;" d="M 56.695781 0.000375 L 56.695781 141.742563 " transform="matrix(1,0,0,-1,154.98,267.141)"/>
<path style="fill:none;stroke-width:0.3985;stroke-linecap:butt;stroke-linejoin:miter;stroke:rgb(0%,0%,29.999237%);stroke-opacity:1;stroke-miterlimit:10;" d="M 0.00046875 70.871469 L 141.742656 70.871469 " transform="matrix(1,0,0,-1,154.98,267.141)"/>
<path style="fill:none;stroke-width:0.3985;stroke-linecap:butt;stroke-linejoin:miter;stroke:rgb(0%,0%,29.999237%);stroke-opacity:1;stroke-miterlimit:10;" d="M 70.871562 0.000375 L 70.871562 141.742563 " transform="matrix(1,0,0,-1,154.98,267.141)"/>
<path style="fill:none;stroke-width:0.3985;stroke-linecap:butt;stroke-linejoin:miter;stroke:rgb(0%,0%,29.999237%);stroke-opacity:1;stroke-miterlimit:10;" d="M 0.00046875 85.04725 L 141.742656 85.04725 " transform="matrix(1,0,0,-1,154.98,267.141)"/>
<path style="fill:none;stroke-width:0.3985;stroke-linecap:butt;stroke-linejoin:miter;stroke:rgb(0%,0%,29.999237%);stroke-opacity:1;stroke-miterlimit:10;" d="M 85.047344 0.000375 L 85.047344 141.742563 " transform="matrix(1,0,0,-1,154.98,267.141)"/>
<path style="fill:none;stroke-width:0.3985;stroke-linecap:butt;stroke-linejoin:miter;stroke:rgb(0%,0%,29.999237%);stroke-opacity:1;stroke-miterlimit:10;" d="M 0.00046875 99.219125 L 141.742656 99.219125 " transform="matrix(1,0,0,-1,154.98,267.141)"/>
<path style="fill:none;stroke-width:0.3985;stroke-linecap:butt;stroke-linejoin:miter;stroke:rgb(0%,0%,29.999237%);stroke-opacity:1;stroke-miterlimit:10;" d="M 99.219219 0.000375 L 99.219219 141.742563 " transform="matrix(1,0,0,-1,154.98,267.141)"/>
<path style="fill:none;stroke-width:0.3985;stroke-linecap:butt;stroke-linejoin:miter;stroke:rgb(0%,0%,29.999237%);stroke-opacity:1;stroke-miterlimit:10;" d="M 0.00046875 113.394906 L 141.742656 113.394906 " transform="matrix(1,0,0,-1,154.98,267.141)"/>
<path style="fill:none;stroke-width:0.3985;stroke-linecap:butt;stroke-linejoin:miter;stroke:rgb(0%,0%,29.999237%);stroke-opacity:1;stroke-miterlimit:10;" d="M 113.395 0.000375 L 113.395 141.742563 " transform="matrix(1,0,0,-1,154.98,267.141)"/>
<path style="fill:none;stroke-width:0.3985;stroke-linecap:butt;stroke-linejoin:miter;stroke:rgb(0%,0%,29.999237%);stroke-opacity:1;stroke-miterlimit:10;" d="M 0.00046875 127.566781 L 141.742656 127.566781 " transform="matrix(1,0,0,-1,154.98,267.141)"/>
<path style="fill:none;stroke-width:0.3985;stroke-linecap:butt;stroke-linejoin:miter;stroke:rgb(0%,0%,29.999237%);stroke-opacity:1;stroke-miterlimit:10;" d="M 127.566875 0.000375 L 127.566875 141.742563 " transform="matrix(1,0,0,-1,154.98,267.141)"/>
<path style="fill:none;stroke-width:1.19553;stroke-linecap:butt;stroke-linejoin:miter;stroke:rgb(50.000763%,50.000763%,50.000763%);stroke-opacity:1;stroke-dasharray:2.98883,2.98883;stroke-miterlimit:10;" d="M 17.008281 17.008188 C -5.671406 93.551156 147.410625 48.191781 133.395 132.293344 " transform="matrix(1,0,0,-1,154.98,267.141)"/>
<path style="fill:none;stroke-width:0.9564;stroke-linecap:round;stroke-linejoin:round;stroke:rgb(50.000763%,50.000763%,50.000763%);stroke-opacity:1;stroke-miterlimit:10;" d="M -1.913327 2.550497 C -1.752287 1.594016 -0.00158515 0.159008 0.478265 -0.0000744012 C 0.000988162 -0.157896 -1.753497 -1.594267 -1.912568 -2.548831 " transform="matrix(-0.16455,-0.98744,-0.98744,0.16455,288.3755,134.84727)"/>
<path style="fill:none;stroke-width:1.19553;stroke-linecap:butt;stroke-linejoin:miter;stroke:rgb(0%,0%,0%);stroke-opacity:1;stroke-miterlimit:10;" d="M 21.262187 12.758188 L 21.262187 39.332406 " transform="matrix(1,0,0,-1,154.98,267.141)"/>
<path style="fill-rule:nonzero;fill:rgb(100%,29.999237%,29.999237%);fill-opacity:1;stroke-width:0.79701;stroke-linecap:butt;stroke-linejoin:miter;stroke:rgb(0%,0%,0%);stroke-opacity:1;stroke-miterlimit:10;" d="M 21.262187 38.269906 C 27.641094 38.269906 34.02 12.758188 29.766094 12.758188 C 30.828594 14.883188 25.512187 14.031625 21.262187 12.758188 C 25.512187 12.758188 25.512187 38.269906 21.262187 38.269906 " transform="matrix(1,0,0,-1,154.98,267.141)"/>
<path style="fill-rule:nonzero;fill:rgb(100%,29.999237%,29.999237%);fill-opacity:1;stroke-width:1.19553;stroke-linecap:butt;stroke-linejoin:miter;stroke:rgb(0%,0%,0%);stroke-opacity:1;stroke-miterlimit:10;" d="M 21.262187 31.891 C 19.984844 27.641 12.758281 12.758188 12.758281 12.758188 C 14.883281 13.183969 17.008281 13.183969 19.137187 12.758188 C 18.070781 17.008188 21.262187 31.891 21.262187 31.891 " transform="matrix(1,0,0,-1,154.98,267.141)"/>
<path style="fill-rule:nonzero;fill:rgb(75.001144%,75.001144%,75.001144%);fill-opacity:1;stroke-width:1.19553;stroke-linecap:butt;stroke-linejoin:miter;stroke:rgb(0%,0%,0%);stroke-opacity:1;stroke-miterlimit:10;" d="M 12.758281 8.504281 L 29.766094 8.504281 L 34.02 14.883188 C 25.512187 10.629281 8.504375 12.758188 8.504375 12.758188 L 12.758281 8.504281 Z M 12.758281 8.504281 " transform="matrix(1,0,0,-1,154.98,267.141)"/>
</g>
</svg>
